<svg id="Capa_1" enable-background="new 0 0 513.055 513.055" height="512" viewBox="0 0 513.055 513.055" width="512" xmlns="http://www.w3.org/2000/svg"><g><g><path d="m372.788 142.718c-2.964 0-5.735-1.424-7.497-3.807-24.762-33.481-64.518-55.234-109.264-55.234s-84.502 21.753-109.264 55.234c-1.762 2.383-4.533 3.807-7.497 3.807h-51.82l68.787-81.472 86.403-26.424 95.211 14.261 57.462 44.04 36.071 49.595z" fill="#e1dee2"/><path d="m455.861 256.378v-36.867c0-110.365-89.469-199.834-199.834-199.834-110.365 0-199.834 89.469-199.834 199.834v37.02 77.023h34v-76.555-37.487c0-91.441 74.393-165.833 165.834-165.833s165.834 74.393 165.834 165.833v37.831 82.176h31.748z" fill="#cac5cb"/><path d="m471.753 274.272c0-9.959-8.073-18.033-18.033-18.033h-25.698c-9.959 0-18.033 8.073-18.033 18.033v13.383 104.154h61.763v-117.537z" fill="#e1dee2"/><path d="m417.626 411.284h67.161c11.47 0 20.768-9.298 20.768-20.768 0-11.47-9.298-20.768-20.768-20.768h-67.161z" fill="#cac5cb"/><path d="m103.065 274.272c0-9.959-8.073-18.033-18.032-18.033h-25.698c-9.959 0-18.032 8.073-18.032 18.033v116.244h61.763v-116.244z" fill="#e1dee2"/><path d="m369.273 473.297h-33.39c-10.027 0-18.155-8.128-18.155-18.155v-129.252c0-10.027 8.128-18.155 18.155-18.155h33.39z" fill="#b3adb5"/><path d="m140.782 473.297h36.39c10.027 0 18.155-8.128 18.155-18.155v-129.252c0-10.027-8.128-18.155-18.155-18.155h-36.39z" fill="#a59ca6"/><g><path d="m98.429 411.284h-70.161c-11.47 0-20.768-9.298-20.768-20.768 0-11.47 9.298-20.768 20.768-20.768h70.161z" fill="#cac5cb"/><path d="m139.702 493.378h-40.193c-11.09 0-20.08-8.99-20.08-20.08v-165.563c0-11.09 8.99-20.08 20.08-20.08h40.192c11.09 0 20.08 8.99 20.08 20.08v165.562c.001 11.09-8.989 20.081-20.079 20.081z" fill="#b3adb5"/><path d="m133.911 461.962c-11.09 0-20.08-8.99-20.08-20.08v-154.227h-14.321c-11.09 0-20.08 8.99-20.08 20.08v165.562c0 11.09 8.99 20.08 20.08 20.08h40.192c11.09 0 20.08-8.99 20.08-20.08v-11.335z" fill="#a59ca6"/><path d="m373.353 493.378h40.192c11.09 0 20.08-8.99 20.08-20.08v-165.563c0-11.09-8.99-20.08-20.08-20.08h-40.192c-11.09 0-20.08 8.99-20.08 20.08v165.562c0 11.09 8.99 20.081 20.08 20.081z" fill="#b3adb5"/><path d="m409.318 466.283c-11.09 0-20.08-8.99-20.08-20.08v-158.548h-15.884c-11.09 0-20.08 8.99-20.08 20.08v165.562c0 11.09 8.99 20.08 20.08 20.08h40.192c11.09 0 20.08-8.99 20.08-20.08v-7.014z" fill="#a59ca6"/></g></g><path d="m484.787 362.248h-5.534v-26.488c0-4.142-3.358-7.5-7.5-7.5s-7.5 3.358-7.5 7.5v26.488h-23.127v-54.513c0-13.869-10.291-25.374-23.636-27.294v-6.169c0-5.808 4.725-10.532 10.533-10.532h25.698c5.808 0 10.532 4.725 10.532 10.532v29.526c0 4.142 3.358 7.5 7.5 7.5s7.5-3.358 7.5-7.5v-29.526c0-10.668-6.579-19.824-15.891-23.636v-31.124c0-50.992-18.694-100.012-52.639-138.03-2.759-3.089-7.5-3.357-10.59-.6-3.09 2.759-3.358 7.5-.6 10.59 31.488 35.266 48.829 80.737 48.829 128.04v29.229h-19v-29.229c0-95.576-77.757-173.333-173.334-173.333s-173.335 77.756-173.335 173.332v29.229h-19v-29.229c0-106.053 86.281-192.334 192.334-192.334 44.057 0 87.116 15.285 121.247 43.038 3.215 2.614 7.938 2.126 10.551-1.087 2.613-3.214 2.126-7.938-1.087-10.551-36.797-29.921-83.217-46.4-130.71-46.4-114.324 0-207.334 93.01-207.334 207.334v31.561c-8.779 4.043-14.891 12.919-14.891 23.201v87.976h-5.534c-15.588-.001-28.269 12.68-28.269 28.267s12.681 28.268 28.268 28.268h43.661v54.513c0 15.208 12.373 27.581 27.58 27.581h40.192c12.608 0 23.259-8.507 26.535-20.081h10.936c14.146 0 25.655-11.509 25.655-25.655v-40.885c0-4.142-3.358-7.5-7.5-7.5s-7.5 3.358-7.5 7.5v40.885c0 5.875-4.78 10.655-10.655 10.655h-9.891v-150.562h9.891c5.875 0 10.655 4.78 10.655 10.655v56.404c0 4.142 3.358 7.5 7.5 7.5s7.5-3.358 7.5-7.5v-56.404c0-14.146-11.509-25.655-25.655-25.655h-10.936c-3.276-11.573-13.927-20.081-26.535-20.081h-29.137v-5.882c0-9.473-5.19-17.751-12.872-22.158v-32.603c0-24.836 5.755-48.352 15.991-69.293h25.583c5.299 0 10.355-2.559 13.526-6.846 24.172-32.683 62.764-52.194 103.234-52.194s79.062 19.512 103.234 52.194c3.171 4.287 8.228 6.846 13.526 6.846h25.583c10.236 20.941 15.991 44.457 15.991 69.293v33.207c-7.128 4.534-11.872 12.498-11.872 21.554v5.883h-29.137c-12.608 0-23.259 8.507-26.535 20.081h-10.936c-14.146 0-25.655 11.509-25.655 25.655v129.251c0 14.146 11.509 25.655 25.655 25.655h10.936c3.276 11.573 13.927 20.081 26.535 20.081h40.192c15.208 0 27.58-12.373 27.58-27.581v-54.513h43.661c15.587 0 28.268-12.681 28.268-28.268s-12.678-28.268-28.265-28.268zm-435.985-87.976c0-5.808 4.725-10.533 10.532-10.533h25.698c5.808 0 10.533 4.725 10.533 10.533v6.169c-13.345 1.92-23.636 13.426-23.636 27.294v54.513h-23.127zm-20.534 129.512c-7.316 0-13.268-5.952-13.268-13.268s5.952-13.268 13.268-13.268h43.661v26.536zm124.014-96.049v165.562c0 6.937-5.644 12.581-12.58 12.581h-40.193c-6.937 0-12.58-5.644-12.58-12.581v-165.562c0-6.937 5.644-12.581 12.58-12.581h40.192c6.937.001 12.581 5.644 12.581 12.581zm220.506-172.517c-.572 0-1.106-.279-1.467-.766-13.066-17.667-30.261-32.32-49.726-42.376-20.132-10.401-42.805-15.898-65.568-15.898s-45.436 5.498-65.568 15.898c-19.464 10.056-36.66 24.709-49.726 42.376-.36.487-.895.766-1.467.766h-17.21c28.068-44.451 77.626-74.041 133.971-74.041s105.903 29.59 133.971 74.041zm-47.561 319.924v-129.252c0-5.875 4.78-10.655 10.655-10.655h9.891v150.562h-9.891c-5.875 0-10.655-4.78-10.655-10.655zm100.898 18.155c0 6.937-5.644 12.581-12.58 12.581h-40.192c-6.937 0-12.58-5.644-12.58-12.581v-165.562c0-6.937 5.644-12.581 12.58-12.581h40.192c6.937 0 12.58 5.644 12.58 12.581zm58.662-69.513h-43.661v-26.536h43.661c7.316 0 13.268 5.952 13.268 13.268s-5.952 13.268-13.268 13.268z"/></g></svg>