<svg xmlns="http://www.w3.org/2000/svg" width="19" height="18" viewBox="0 0 19 18">
  <g id="Grupo_1" data-name="Grupo 1" transform="translate(-21 -104)">
    <g id="Rectángulo_1" data-name="Rectángulo 1" transform="translate(21 104)" fill="none" stroke="#88b0ff" stroke-width="1">
      <rect width="13" height="12" rx="2" stroke="none"/>
      <rect x="0.5" y="0.5" width="12" height="11" rx="1.5" fill="none"/>
    </g>
    <g id="Trazado_1" data-name="Trazado 1" transform="translate(26 111)" fill="none">
      <path d="M1.523,4.03H7.008V0H12a2,2,0,0,1,2,2V9a2,2,0,0,1-2,2H2A2,2,0,0,1,0,9V4.953C0,3.849.419,4.03,1.523,4.03Z" stroke="none"/>
      <path d="M 8.007820129394531 1 L 8.007820129394531 4.029689788818359 L 8.007820129394531 5.029689788818359 L 7.007820129394531 5.029689788818359 L 1.523440361022949 5.029689788818359 C 1.363280296325684 5.029689788818359 1.218819618225098 5.026219844818115 1.09138011932373 5.023169994354248 C 1.059581756591797 5.022406578063965 1.029154777526855 5.021675586700439 1 5.021032333374023 L 1 9 C 1 9.551400184631348 1.448599815368652 10 2 10 L 12 10 C 12.55140018463135 10 13 9.551400184631348 13 9 L 13 2 C 13 1.448599815368652 12.55140018463135 1 12 1 L 8.007820129394531 1 M 7.007820129394531 0 L 12 0 C 13.10457038879395 0 14 0.8954296112060547 14 2 L 14 9 C 14 10.10457038879395 13.10457038879395 11 12 11 L 2 11 C 0.8954296112060547 11 0 10.10457038879395 0 9 L 0 4.953120231628418 C 0 4.121396541595459 0.2375898361206055 4.018642425537109 0.8265056610107422 4.018642425537109 C 1.019691467285156 4.018642425537109 1.250600814819336 4.029689788818359 1.523440361022949 4.029689788818359 L 7.007820129394531 4.029689788818359 L 7.007820129394531 0 Z" stroke="none" fill="#88b0ff"/>
    </g>
  </g>
</svg>
