<svg xmlns="http://www.w3.org/2000/svg" width="11" height="13" viewBox="0 0 11 13">
  <g id="Grupo_3" data-name="Grupo 3" transform="translate(-61 -105)">
    <g id="Polígono_1" data-name="Polígono 1" transform="translate(72 105) rotate(90)" fill="none">
      <path d="M4.778,2.914a2,2,0,0,1,3.444,0l3,5.069A2,2,0,0,1,9.5,11H3.5A2,2,0,0,1,1.783,7.983Z" stroke="none"/>
      <path d="M 6.499999523162842 2.931354522705078 C 6.328429698944092 2.931354522705078 5.901089668273926 2.979225158691406 5.639079570770264 3.422635078430176 L 2.643969535827637 8.491274833679199 C 2.3773193359375 8.942514419555664 2.549819946289063 9.343964576721191 2.636359214782715 9.495624542236328 C 2.722899436950684 9.647274971008301 2.980759620666504 9.999994277954102 3.504899978637695 9.999994277954102 L 9.495100021362305 10.00000476837158 C 10.01923942565918 10.00000476837158 10.277099609375 9.647274971008301 10.36363983154297 9.495624542236328 C 10.45018005371094 9.343964576721191 10.6226692199707 8.942514419555664 10.35602951049805 8.491274833679199 L 7.36091947555542 3.422635078430176 C 7.098909378051758 2.979225158691406 6.671569347381592 2.931354522705078 6.499999523162842 2.931354522705078 M 6.499999523162842 1.93135929107666 C 7.167394638061523 1.93135929107666 7.834789752960205 2.258874893188477 8.22184944152832 2.913905143737793 L 11.21695899963379 7.982544898986816 C 12.00476932525635 9.315774917602539 11.04369926452637 11.00000476837158 9.495100021362305 11.00000476837158 L 3.504899978637695 10.9999942779541 C 1.956299781799316 11.00000476837158 0.9952297210693359 9.315774917602539 1.783039093017578 7.982544898986816 L 4.778149604797363 2.913905143737793 C 5.165209293365479 2.258874893188477 5.83260440826416 1.93135929107666 6.499999523162842 1.93135929107666 Z" stroke="none" fill="#c1fafc"/>
    </g>
    <g id="Polígono_2" data-name="Polígono 2" transform="translate(66.5 109.5) rotate(90)" fill="none">
      <path d="M2,0,4,3H0Z" stroke="none"/>
      <path d="M 1.99999988079071 0 L 4 3 L -2.384185791015625e-07 3 L 1.99999988079071 0 Z" stroke="none" fill="#c7eaff"/>
    </g>
  </g>
</svg>
